<svg xmlns="http://www.w3.org/2000/svg" xmlns:xlink="http://www.w3.org/1999/xlink" width="527" zoomAndPan="magnify" viewBox="0 0 395.25 149.999998" height="200" preserveAspectRatio="xMidYMid meet" version="1.0"><defs><g/><clipPath id="5b755dca13"><path d="M 71 0.613281 L 82 0.613281 L 82 18 L 71 18 Z M 71 0.613281 " clip-rule="nonzero"/></clipPath><clipPath id="fe42b31a43"><path d="M 33 84 L 103 84 L 103 149.5 L 33 149.5 Z M 33 84 " clip-rule="nonzero"/></clipPath></defs><g clip-path="url(#5b755dca13)"><path fill="#363f4d" d="M 81.902344 5.714844 L 80.207031 17.253906 L 71.777344 16.015625 L 73.472656 4.480469 C 73.8125 2.175781 75.953125 0.574219 78.257812 0.914062 C 78.289062 0.917969 78.316406 0.921875 78.34375 0.925781 C 80.648438 1.265625 82.238281 3.410156 81.902344 5.714844 " fill-opacity="1" fill-rule="nonzero"/></g><path fill="#455fb5" d="M 59.035156 27.46875 C 62.328125 23.648438 65.410156 20.792969 67.890625 18.753906 C 33.878906 16.8125 4.453125 35.417969 0.203125 62.691406 C 0.195312 62.730469 0.1875 62.765625 0.179688 62.804688 C 0.175781 62.824219 0.175781 62.84375 0.175781 62.863281 C 0.164062 62.933594 0.152344 62.996094 0.140625 63.0625 L 0.15625 63.066406 C 0 65.046875 1.402344 66.835938 3.402344 67.128906 C 5.398438 67.421875 7.253906 66.109375 7.683594 64.167969 C 10.683594 64.058594 13.671875 64.226562 16.617188 64.660156 C 22.757812 65.558594 28.703125 67.621094 34.117188 70.761719 L 37.027344 72.445312 C 42.53125 50.015625 52.015625 35.617188 59.035156 27.46875 " fill-opacity="1" fill-rule="nonzero"/><path fill="#455fb5" d="M 83.140625 20.988281 C 84.929688 23.65625 87.058594 27.277344 89.109375 31.882812 C 93.488281 41.703125 98.425781 58.21875 97.242188 81.273438 L 97.980469 81.097656 C 107.78125 78.714844 118.039062 78.953125 127.714844 81.785156 C 127.414062 83.871094 128.855469 85.804688 130.941406 86.113281 C 130.992188 86.117188 131.046875 86.125 131.097656 86.132812 C 133.164062 86.351562 134.996094 84.804688 135.289062 82.75 C 139.230469 55.320312 116.363281 28.925781 83.140625 20.988281 " fill-opacity="1" fill-rule="nonzero"/><path fill="#363f4d" d="M 74.824219 24.582031 C 72.496094 26.367188 69.167969 29.265625 65.535156 33.515625 C 59.296875 40.828125 50.871094 53.734375 45.808594 73.910156 C 53.039062 73.636719 60.269531 74.035156 67.402344 75.082031 C 74.535156 76.125 81.566406 77.824219 88.414062 80.160156 C 89.835938 49.429688 79.765625 31.460938 74.824219 24.582031 " fill-opacity="1" fill-rule="nonzero"/><g clip-path="url(#fe42b31a43)"><path fill="#455fb5" d="M 95.972656 109.738281 C 95.472656 114.550781 93.277344 119.433594 89.796875 123.484375 C 84.71875 129.382812 72.183594 138.800781 67.9375 141.921875 C 63.6875 138.800781 51.15625 129.386719 46.078125 123.488281 C 44.523438 121.675781 43.230469 119.707031 42.226562 117.648438 L 45.734375 117.648438 C 45.734375 117.648438 45.738281 117.644531 45.742188 117.640625 L 48.257812 110.8125 C 48.261719 110.808594 48.273438 110.808594 48.277344 110.8125 L 55.195312 127.558594 C 55.535156 128.375 56.707031 128.332031 56.976562 127.496094 L 60.199219 117.652344 C 60.203125 117.648438 60.207031 117.648438 60.207031 117.648438 L 67.078125 117.648438 C 67.078125 117.648438 67.082031 117.644531 67.085938 117.640625 L 70.59375 108.5 C 70.597656 108.492188 70.609375 108.492188 70.613281 108.5 L 76.859375 128 C 77.144531 128.90625 78.433594 128.875 78.679688 127.960938 L 81.460938 117.652344 C 81.460938 117.652344 81.460938 117.648438 81.46875 117.648438 L 87.078125 117.648438 C 88.070312 117.648438 88.871094 116.808594 88.808594 115.804688 C 88.753906 114.878906 87.9375 114.175781 87.007812 114.175781 L 78.804688 114.175781 C 78.800781 114.175781 78.796875 114.179688 78.796875 114.183594 L 77.5625 118.761719 C 77.5625 118.773438 77.546875 118.773438 77.546875 118.761719 L 71.726562 100.589844 C 71.449219 99.738281 70.253906 99.703125 69.929688 100.539062 L 64.699219 114.171875 C 64.695312 114.171875 64.691406 114.175781 64.6875 114.175781 L 57.6875 114.175781 C 57.6875 114.175781 57.683594 114.179688 57.679688 114.183594 L 55.808594 119.90625 C 55.804688 119.910156 55.792969 119.914062 55.789062 119.90625 L 49.015625 103.5 C 48.683594 102.703125 47.542969 102.726562 47.242188 103.535156 L 43.320312 114.171875 C 43.316406 114.171875 43.316406 114.175781 43.3125 114.175781 L 40.835938 114.175781 C 40.367188 112.710938 40.054688 111.222656 39.898438 109.742188 C 39.351562 104.488281 40.84375 99.644531 44.21875 95.726562 C 47.167969 92.285156 51.039062 90.390625 55.113281 90.390625 C 57.5 90.390625 59.792969 91.054688 61.925781 92.371094 L 61.988281 92.40625 C 62.625 92.777344 63.917969 93.835938 65.84375 95.550781 L 67.9375 97.414062 L 70.03125 95.546875 C 71.953125 93.832031 73.25 92.777344 73.886719 92.40625 L 73.945312 92.371094 C 76.082031 91.054688 78.371094 90.390625 80.761719 90.390625 C 84.835938 90.390625 88.707031 92.285156 91.664062 95.730469 C 95.03125 99.644531 96.523438 104.488281 95.972656 109.738281 Z M 96.269531 91.777344 C 92.144531 86.972656 86.636719 84.324219 80.761719 84.324219 C 77.242188 84.324219 73.886719 85.289062 70.789062 87.1875 C 69.988281 87.664062 68.976562 88.449219 67.9375 89.328125 C 66.894531 88.449219 65.886719 87.664062 65.085938 87.1875 C 61.988281 85.289062 58.632812 84.324219 55.113281 84.324219 C 49.234375 84.324219 43.730469 86.972656 39.609375 91.773438 C 35.125 96.984375 33.136719 103.414062 33.863281 110.367188 C 34.492188 116.398438 37.191406 122.457031 41.472656 127.4375 C 47.804688 134.792969 63.8125 146.441406 65.835938 147.890625 L 65.832031 147.894531 L 67.9375 149.472656 L 70.042969 147.894531 L 70.039062 147.890625 C 72.058594 146.441406 88.070312 134.792969 94.398438 127.4375 C 98.679688 122.457031 101.382812 116.398438 102.011719 110.367188 C 102.738281 103.414062 100.75 96.988281 96.269531 91.777344 " fill-opacity="1" fill-rule="nonzero"/></g><g fill="#363f4d" fill-opacity="1"><g transform="translate(157.77534, 64.754592)"><g><path d="M 3.578125 0 L 3.578125 -33.484375 L 25.375 -33.484375 L 25.375 -27.28125 L 11.734375 -27.28125 L 11.734375 -20.078125 L 21.9375 -20.078125 L 21.9375 -13.875 L 11.734375 -13.875 L 11.734375 0 Z M 3.578125 0 "/></g></g></g><g fill="#363f4d" fill-opacity="1"><g transform="translate(185.195251, 64.754592)"><g><path d="M 23.84375 -33.578125 L 23.84375 -27.375 L 11.734375 -27.375 L 11.734375 -20.171875 L 22.40625 -20.171875 L 22.40625 -13.96875 L 11.734375 -13.96875 L 11.734375 -6.203125 L 23.84375 -6.203125 L 23.84375 0 L 3.578125 0 L 3.578125 -33.578125 Z M 23.84375 -33.578125 "/></g></g></g><g fill="#363f4d" fill-opacity="1"><g transform="translate(212.472108, 64.754592)"><g><path d="M 3.578125 -33.484375 L 18.125 -33.484375 C 21.519531 -33.484375 24.226562 -32.65625 26.25 -31 C 28.269531 -29.34375 29.28125 -27.242188 29.28125 -24.703125 C 29.28125 -20.921875 27.070312 -18.363281 22.65625 -17.03125 C 24.90625 -16.707031 26.695312 -15.765625 28.03125 -14.203125 C 29.375 -12.648438 30.046875 -10.828125 30.046875 -8.734375 C 30.046875 -6.054688 29.066406 -3.929688 27.109375 -2.359375 C 25.148438 -0.785156 22.425781 0 18.9375 0 L 3.578125 0 Z M 11.734375 -27.28125 L 11.734375 -20.03125 L 17.078125 -20.03125 C 18.253906 -20.03125 19.195312 -20.332031 19.90625 -20.9375 C 20.625 -21.539062 20.984375 -22.4375 20.984375 -23.625 C 20.984375 -24.820312 20.625 -25.726562 19.90625 -26.34375 C 19.195312 -26.96875 18.253906 -27.28125 17.078125 -27.28125 Z M 11.734375 -6.203125 L 17.890625 -6.203125 C 18.992188 -6.203125 19.910156 -6.535156 20.640625 -7.203125 C 21.378906 -7.867188 21.75 -8.789062 21.75 -9.96875 C 21.75 -11.144531 21.394531 -12.082031 20.6875 -12.78125 C 19.988281 -13.476562 19.085938 -13.828125 17.984375 -13.828125 L 11.734375 -13.828125 Z M 11.734375 -6.203125 "/></g></g></g><g fill="#363f4d" fill-opacity="1"><g transform="translate(157.77534, 111.915102)"><g><path d="M 14.921875 -27.515625 C 13.910156 -27.515625 13.078125 -27.242188 12.421875 -26.703125 C 11.765625 -26.160156 11.4375 -25.378906 11.4375 -24.359375 C 11.4375 -23.347656 11.738281 -22.53125 12.34375 -21.90625 C 12.945312 -21.289062 13.734375 -20.816406 14.703125 -20.484375 C 15.679688 -20.148438 16.765625 -19.832031 17.953125 -19.53125 C 19.148438 -19.226562 20.332031 -18.859375 21.5 -18.421875 C 22.675781 -17.992188 23.75 -17.460938 24.71875 -16.828125 C 25.695312 -16.191406 26.488281 -15.296875 27.09375 -14.140625 C 27.695312 -12.984375 28 -11.59375 28 -9.96875 C 28 -7.132812 26.84375 -4.707031 24.53125 -2.6875 C 22.226562 -0.675781 19.191406 0.328125 15.421875 0.328125 C 11.660156 0.328125 8.625 -0.578125 6.3125 -2.390625 C 4.007812 -4.203125 2.859375 -6.773438 2.859375 -10.109375 L 11.546875 -10.109375 C 11.765625 -7.441406 13.128906 -6.109375 15.640625 -6.109375 C 16.816406 -6.109375 17.738281 -6.414062 18.40625 -7.03125 C 19.070312 -7.65625 19.40625 -8.441406 19.40625 -9.390625 C 19.40625 -10.347656 19.101562 -11.128906 18.5 -11.734375 C 17.894531 -12.335938 17.109375 -12.8125 16.140625 -13.15625 C 15.171875 -13.507812 14.085938 -13.835938 12.890625 -14.140625 C 11.703125 -14.441406 10.519531 -14.8125 9.34375 -15.25 C 8.164062 -15.695312 7.09375 -16.226562 6.125 -16.84375 C 5.15625 -17.46875 4.367188 -18.359375 3.765625 -19.515625 C 3.160156 -20.679688 2.859375 -22.0625 2.859375 -23.65625 C 2.859375 -26.769531 4.019531 -29.265625 6.34375 -31.140625 C 8.664062 -33.015625 11.628906 -33.953125 15.234375 -33.953125 C 18.847656 -33.953125 21.765625 -33.132812 23.984375 -31.5 C 26.210938 -29.863281 27.375 -27.28125 27.46875 -23.75 L 18.59375 -23.75 C 18.46875 -24.957031 18.078125 -25.882812 17.421875 -26.53125 C 16.773438 -27.1875 15.941406 -27.515625 14.921875 -27.515625 Z M 14.921875 -27.515625 "/></g></g></g><g fill="#363f4d" fill-opacity="1"><g transform="translate(188.628704, 111.915102)"><g><path d="M 10.125 -37.53125 C 9.445312 -36.863281 8.613281 -36.53125 7.625 -36.53125 C 6.644531 -36.53125 5.820312 -36.863281 5.15625 -37.53125 C 4.488281 -38.195312 4.15625 -39.019531 4.15625 -40 C 4.15625 -40.988281 4.488281 -41.820312 5.15625 -42.5 C 5.820312 -43.1875 6.65625 -43.53125 7.65625 -43.53125 C 8.65625 -43.53125 9.488281 -43.1875 10.15625 -42.5 C 10.820312 -41.820312 11.15625 -40.988281 11.15625 -40 C 11.15625 -39.019531 10.8125 -38.195312 10.125 -37.53125 Z M 3.578125 0 L 3.578125 -33.484375 L 11.734375 -33.484375 L 11.734375 0 Z M 3.578125 0 "/></g></g></g><g fill="#363f4d" fill-opacity="1"><g transform="translate(203.936171, 111.915102)"><g><path d="M 6.609375 -4.546875 C 3.285156 -7.773438 1.625 -11.867188 1.625 -16.828125 C 1.625 -21.785156 3.285156 -25.878906 6.609375 -29.109375 C 9.929688 -32.335938 13.988281 -33.953125 18.78125 -33.953125 C 22.507812 -33.953125 25.816406 -32.96875 28.703125 -31 C 31.597656 -29.03125 33.617188 -26.296875 34.765625 -22.796875 L 25.03125 -22.796875 C 23.757812 -25.242188 21.722656 -26.46875 18.921875 -26.46875 C 16.128906 -26.46875 13.929688 -25.59375 12.328125 -23.84375 C 10.722656 -22.09375 9.921875 -19.753906 9.921875 -16.828125 C 9.921875 -13.910156 10.722656 -11.578125 12.328125 -9.828125 C 13.929688 -8.078125 16.082031 -7.203125 18.78125 -7.203125 C 20.726562 -7.203125 22.3125 -7.6875 23.53125 -8.65625 C 24.757812 -9.625 25.578125 -10.921875 25.984375 -12.546875 L 16.546875 -12.546875 L 16.546875 -18.734375 L 34.765625 -18.734375 L 34.765625 -12.546875 C 34.160156 -9.492188 32.488281 -6.644531 29.75 -4 C 28.445312 -2.726562 26.832031 -1.695312 24.90625 -0.90625 C 22.988281 -0.113281 20.945312 0.28125 18.78125 0.28125 C 13.988281 0.28125 9.929688 -1.328125 6.609375 -4.546875 Z M 6.609375 -4.546875 "/></g></g></g><g fill="#363f4d" fill-opacity="1"><g transform="translate(240.368895, 111.915102)"><g><path d="M 25.203125 -9.828125 C 26.804688 -11.578125 27.609375 -13.910156 27.609375 -16.828125 C 27.609375 -19.753906 26.804688 -22.09375 25.203125 -23.84375 C 23.597656 -25.59375 21.453125 -26.46875 18.765625 -26.46875 C 16.078125 -26.46875 13.929688 -25.59375 12.328125 -23.84375 C 10.722656 -22.09375 9.921875 -19.753906 9.921875 -16.828125 C 9.921875 -13.910156 10.722656 -11.578125 12.328125 -9.828125 C 13.929688 -8.078125 16.078125 -7.203125 18.765625 -7.203125 C 21.453125 -7.203125 23.597656 -8.078125 25.203125 -9.828125 Z M 6.609375 -4.53125 C 3.285156 -7.769531 1.625 -11.867188 1.625 -16.828125 C 1.625 -21.785156 3.285156 -25.878906 6.609375 -29.109375 C 9.929688 -32.335938 14 -33.953125 18.8125 -33.953125 C 23.625 -33.953125 27.675781 -32.335938 30.96875 -29.109375 C 34.257812 -25.878906 35.90625 -21.785156 35.90625 -16.828125 C 35.90625 -11.867188 34.25 -7.769531 30.9375 -4.53125 C 27.632812 -1.289062 23.582031 0.328125 18.78125 0.328125 C 13.988281 0.328125 9.929688 -1.289062 6.609375 -4.53125 Z M 6.609375 -4.53125 "/></g></g></g><g fill="#363f4d" fill-opacity="1"><g transform="translate(277.946099, 111.915102)"><g><path d="M 11.734375 -13.015625 L 11.734375 0 L 3.578125 0 L 3.578125 -33.484375 L 16.78125 -33.484375 C 20.664062 -33.484375 23.6875 -32.476562 25.84375 -30.46875 C 28.007812 -28.46875 29.09375 -26.050781 29.09375 -23.21875 C 29.09375 -21.28125 28.503906 -19.390625 27.328125 -17.546875 C 26.148438 -15.703125 24.226562 -14.398438 21.5625 -13.640625 L 29.75 0 L 20.21875 0 L 12.6875 -13.015625 Z M 11.734375 -27.28125 L 11.734375 -19.21875 L 16.78125 -19.21875 C 18.019531 -19.21875 19 -19.582031 19.71875 -20.3125 C 20.4375 -21.039062 20.796875 -22 20.796875 -23.1875 C 20.796875 -24.382812 20.425781 -25.363281 19.6875 -26.125 C 18.957031 -26.894531 17.988281 -27.28125 16.78125 -27.28125 Z M 11.734375 -27.28125 "/></g></g></g><g fill="#363f4d" fill-opacity="1"><g transform="translate(309.80089, 111.915102)"><g><path d="M 1.28125 -27.28125 L 1.28125 -33.484375 L 27.703125 -33.484375 L 27.703125 -27.28125 L 18.546875 -27.28125 L 18.546875 0 L 10.390625 0 L 10.390625 -27.28125 Z M 1.28125 -27.28125 "/></g></g></g><g fill="#363f4d" fill-opacity="1"><g transform="translate(338.794468, 111.915102)"><g><path d="M 24.84375 0 L 22.984375 -5.625 L 10.96875 -5.625 L 9.109375 0 L 0.421875 0 L 12.0625 -33.578125 L 21.984375 -33.578125 L 33.578125 0 Z M 13.015625 -11.828125 L 20.9375 -11.828125 L 16.984375 -23.75 Z M 13.015625 -11.828125 "/></g></g></g></svg>